<?xml version="1.0" encoding="UTF-8" standalone="no"?>
<svg
   xmlns:dc="http://purl.org/dc/elements/1.1/"
   xmlns:cc="http://creativecommons.org/ns#"
   xmlns:rdf="http://www.w3.org/1999/02/22-rdf-syntax-ns#"
   xmlns:svg="http://www.w3.org/2000/svg"
   xmlns="http://www.w3.org/2000/svg"
   xmlns:sodipodi="http://sodipodi.sourceforge.net/DTD/sodipodi-0.dtd"
   xmlns:inkscape="http://www.inkscape.org/namespaces/inkscape"
   version="1.1"
   id="svg10"
   width="1386.6667"
   height="446.66666"
   viewBox="0 0 1386.6667 446.66666"
   sodipodi:docname="dovervector.svg"
   inkscape:version="1.0.2-2 (e86c870879, 2021-01-15)">
  <metadata
     id="metadata16">
    <rdf:RDF>
      <cc:Work
         rdf:about="">
        <dc:format>image/svg+xml</dc:format>
        <dc:type
           rdf:resource="http://purl.org/dc/dcmitype/StillImage" />
        <dc:title></dc:title>
      </cc:Work>
    </rdf:RDF>
  </metadata>
  <defs
     id="defs14" />
  <sodipodi:namedview
     pagecolor="#ffffff"
     bordercolor="#666666"
     borderopacity="1"
     objecttolerance="10"
     gridtolerance="10"
     guidetolerance="10"
     inkscape:pageopacity="0"
     inkscape:pageshadow="2"
     inkscape:window-width="1360"
     inkscape:window-height="705"
     id="namedview12"
     showgrid="false"
     inkscape:zoom="0.47740382"
     inkscape:cx="693.33337"
     inkscape:cy="223.33333"
     inkscape:window-x="-8"
     inkscape:window-y="-8"
     inkscape:window-maximized="1"
     inkscape:current-layer="g18" />
  <g
     inkscape:groupmode="layer"
     inkscape:label="Image"
     id="g18">
    <path
       style="fill:#000000;stroke-width:1.33333"
       d="m 1005.3741,412.80546 c -0.086,-0.2846 -0.3355,-2.61745 -0.5542,-5.18412 -0.2187,-2.56666 -1.3094,-12.22893 -2.4239,-21.47172 -1.1144,-9.24277 -1.8689,-19.59277 -1.6766,-23 0.1924,-3.40721 -0.024,-6.19494 -0.4814,-6.19494 -1.17245,0 -4.04055,-17.52684 -4.04055,-24.69142 0,-3.98534 0.5719,-5.97525 1.7173,-5.97525 0.9445,0 8.80965,-0.87981 17.47815,-1.95514 8.6685,-1.07534 20.9925,-1.82534 27.3867,-1.66667 10.4882,0.26025 12.1117,0.65917 16.5923,4.07681 2.7316,2.08359 4.7366,4.47823 4.4555,5.32143 -0.281,0.8432 0.3288,2.3729 1.3553,3.39934 2.6417,2.64178 1.2842,14.23626 -2.2222,18.97886 -3.3808,4.57276 -3.4212,5.1787 -0.3459,5.1787 2.6649,0 9.5828,6.54976 9.5828,9.07296 0,0.87654 0.5472,1.59371 1.2161,1.59371 0.6689,0 1.6216,2.4 2.1172,5.33333 2.522,14.92794 -6.2083,27.65695 -21.3333,31.10442 -0.7334,0.16714 -1.9334,0.66981 -2.6667,1.11704 -0.7333,0.44721 -5.8333,1.25656 -11.3333,1.79854 -5.5,0.54198 -11.5,1.15803 -13.3334,1.369 -14.3446,1.65071 -21.3564,2.23642 -21.4899,1.79512 z m 41.2406,-24.6319 c 1.9705,-1.02802 3.1116,-1.87282 2.5358,-1.87734 -0.5758,-0.004 -0.4231,-1.17392 0.3394,-2.59868 2.4708,-4.6168 -2.8556,-11.64349 -8.2607,-10.89768 -0.5325,0.0735 -4.1325,0.38075 -8,0.68284 -6.1146,0.47762 -7.0194,0.9138 -6.9366,3.34395 0.052,1.53708 0.2013,5.34469 0.3309,8.46136 l 0.2357,5.66667 8.0864,-0.456 c 4.4476,-0.2508 9.6987,-1.2971 11.6691,-2.32512 z m -13.5706,-32.84355 c 0.3542,-0.57311 1.7351,-1.042 3.0687,-1.042 1.3336,0 3.2391,-0.98132 4.2345,-2.18072 4.8511,-5.84511 -0.7428,-11.61247 -10.4722,-10.79701 -4.8802,0.40902 -6.3188,1.04477 -6.2333,2.75474 0.061,1.22264 0.2111,4.63252 0.3333,7.5775 0.2124,5.11594 0.405,5.3406 4.3236,5.042 2.2558,-0.17188 4.3912,-0.78142 4.7454,-1.35451 z m 48.4866,47.08996 c 0,-1.34817 1.2,-6.20756 2.6667,-10.79863 1.4666,-4.59106 2.6666,-9.63221 2.6666,-11.20254 0,-1.57035 1.2312,-7.04219 2.7359,-12.15964 1.5047,-5.11747 3.8941,-14.84831 5.3097,-21.6241 1.4156,-6.77577 3.3903,-14.27577 4.3882,-16.66666 0.998,-2.39088 2.2358,-6.59705 2.7507,-9.34705 0.515,-2.75 1.6592,-5.04591 2.5426,-5.10202 0.8834,-0.0561 2.8063,-0.33992 4.2729,-0.63068 1.4667,-0.29076 7.2714,-0.92733 12.8993,-1.41461 l 10.2326,-0.88596 1.5533,5.84997 c 0.8543,3.21748 2.802,7.1976 4.3282,8.84471 1.5262,1.6471 2.4086,3.36104 1.9609,3.80873 -0.4477,0.44771 -0.2569,1.50007 0.424,2.3386 1.797,2.21304 11.9725,22.19125 11.3027,22.19125 -0.3111,0 1.8263,4.2211 4.7497,9.38019 2.9235,5.15911 4.9997,9.89113 4.6137,10.5156 -0.3859,0.62447 0.1328,1.82799 1.1528,2.67449 1.02,0.84651 2.2601,3.1645 2.7559,5.15108 0.4957,1.98659 1.8072,4.61734 2.9143,5.84611 1.1072,1.22876 1.7975,3.32876 1.5341,4.66667 -0.3729,1.89404 -1.5853,2.37753 -5.4764,2.18408 -2.7487,-0.13666 -4.7274,0.18864 -4.3972,0.72288 0.3302,0.53424 -3.0044,1.1137 -7.41,1.28769 -5.2251,0.20635 -7.7154,-0.16092 -7.1621,-1.05623 0.4665,-0.7549 0.063,-1.37561 -0.8971,-1.37936 -0.9599,-0.004 -2.683,-2.85373 -3.829,-6.33333 l -2.0837,-6.32653 -7.9163,0.30396 c -16.7633,0.64365 -19.2704,1.4201 -21.4531,6.64381 -1.0919,2.61343 -2.0357,6.52377 -2.0973,8.68965 -0.1324,4.65923 0.015,4.6008 -14.0326,5.54207 -10.0561,0.67379 -11,0.52671 -11,-1.7142 z m 45.6048,-38.18125 c 0.8108,-0.8108 -2.0764,-9.74996 -4.9336,-15.27536 -1.044,-2.01883 -1.5221,-4.04666 -1.0625,-4.50631 0.4597,-0.45964 0.1956,-0.83571 -0.5868,-0.83571 -1.464,0 -4.9481,12.17414 -4.6745,16.33334 0.084,1.28333 -0.4446,2.33333 -1.1756,2.33333 -0.7311,0 -0.9584,0.6 -0.5051,1.33333 0.8499,1.37527 11.6642,1.8913 12.9381,0.61738 z M 96.291177,399.6793 c -0.91019,-0.56252 -1.53701,-1.41568 -1.39295,-1.8959 0.41914,-1.3971 -1.3397,-12.4504 -4.24496,-26.67711 -2.21848,-10.86368 -2.37802,-13.38065 -0.9072,-14.31292 1.1069,-0.70161 1.20588,-1.13895 0.26063,-1.15161 -2.66902,-0.0357 -3.45453,-4.08866 -4.91389,-25.35375 -0.22288,-3.24763 0.0132,-3.33773 9.18158,-3.50443 5.17568,-0.0941 11.175683,-0.55217 13.333333,-1.01793 2.15765,-0.46577 9.623,-1.14738 16.58967,-1.5147 6.96666,-0.36732 16.71666,-1.02502 21.66666,-1.46154 6.13871,-0.54134 9.05299,-0.32332 9.16667,0.6858 0.0916,0.81371 0.24167,1.97232 0.33333,2.57471 0.0916,0.60237 1.2368,2.16537 2.54476,3.47332 1.86144,1.86145 3.45462,2.16617 7.33334,1.40262 2.72537,-0.5365 6.75524,-1.21312 8.95524,-1.50358 9.35631,-1.23531 10.86227,-1.48128 14.66667,-2.39564 2.2,-0.52875 4.9,-1.30587 6,-1.72695 1.1,-0.42108 2.75,-0.64466 3.66666,-0.49685 0.91667,0.1478 1.66667,-0.34257 1.66667,-1.08972 0,-2.05805 12.45373,-7.39724 13.05397,-5.59652 0.31759,0.95277 1.29071,1.06052 2.72026,0.3012 2.20765,-1.1726 12.55652,-2.12184 38.22577,-3.50619 7.33333,-0.39548 20.80087,-1.30005 29.92785,-2.01014 9.12698,-0.71011 17.05732,-0.82828 17.62299,-0.26262 1.21879,1.21879 -0.0704,6.9825 -1.5618,6.9825 -0.56831,0 -1.38385,1.39676 -1.81232,3.10392 -0.42847,1.70714 -2.42965,4.85714 -4.44707,6.99999 -2.01742,2.14284 -3.70705,4.19608 -3.75473,4.56275 -0.36121,2.77763 -5.10556,9.33333 -6.75452,9.33333 -1.12444,0 -1.67616,0.5959 -1.22604,1.3242 1.04265,1.68707 -5.29792,8.06387 -17.96285,18.06548 -11.08258,8.75202 -18.48227,12.97847 -21.01867,12.00516 -0.92373,-0.35446 -1.67951,-0.0787 -1.67951,0.61276 0,1.54464 -7.23489,5.395 -11.13817,5.92766 -1.574,0.21478 -5.02816,1.34032 -7.67591,2.50118 -2.64773,1.16086 -6.54773,2.42394 -8.66666,2.80683 -2.11892,0.38291 -5.50259,1.05749 -7.51926,1.49907 -2.49738,0.54685 -3.66666,0.26264 -3.66666,-0.89123 0,-1.15528 -0.53011,-1.02725 -1.66667,0.40248 -1.10873,1.39475 -5.01424,2.39304 -11.66667,2.98213 -5.5,0.48704 -16,1.42746 -23.33333,2.08979 -7.33334,0.66233 -17.23334,1.55399 -22,1.98143 -7.5868,0.68034 -16.17967,1.6873 -22.66667,2.65621 -11.50061,1.71773 -14.65759,2.15463 -18.79233,2.60064 -2.63578,0.28432 -5.537033,0.0567 -6.447213,-0.50583 z M 1177.8683,392.66465 c 0.4052,-1.05596 0.1963,-4.81273 -0.4642,-8.3484 -0.6605,-3.53567 -1.5029,-9.48843 -1.8718,-13.22836 -0.369,-3.73993 -1.6023,-14.59988 -2.7407,-24.13321 -3.3135,-27.74872 -4.3375,-38.62231 -3.7009,-39.29963 0.3271,-0.34812 3.41,-0.74466 6.8507,-0.88122 3.4408,-0.13655 11.656,-0.75172 18.256,-1.36704 20.7569,-1.93519 31.3391,-1.46356 37.3333,1.66388 8.4323,4.39954 11.1475,9.53358 11.0714,20.93449 -0.073,10.91438 -2.0144,15.94522 -8.1684,21.16604 l -4.1844,3.54984 9.294,9.11682 c 5.1117,5.01424 10.2673,10.91682 11.4569,13.11682 1.1896,2.2 3.4456,4.19173 5.0134,4.42606 1.5677,0.23434 2.9404,1.28434 3.0504,2.33334 0.11,1.049 0.26,2.59104 0.3334,3.42676 0.081,0.92836 -2.979,1.73442 -7.8667,2.07196 -4.4,0.30384 -9.8132,1.03392 -12.0293,1.6224 -4.5051,1.1963 -10.5929,-0.46175 -9.311,-2.53591 0.4571,-0.73953 0.01,-1.34461 -1.0042,-1.34461 -2.6338,0 -17.1942,-15.9224 -16.132,-17.64102 0.4887,-0.79072 0.2862,-1.06544 -0.4499,-0.61048 -0.7362,0.45496 -2.6249,-0.65233 -4.1972,-2.46065 -1.5723,-1.80832 -4.2751,-3.28785 -6.0061,-3.28785 -3.0207,0 -3.1417,0.37516 -3.0088,9.3232 0.076,5.12776 0.4885,9.32776 0.9163,9.33333 0.4278,0.005 0.7997,0.76013 0.8265,1.6768 0.027,0.91667 0.499,3.94523 1.0492,6.73013 l 1.0004,5.06348 -5.1603,-0.23626 c -2.8381,-0.13 -8.7001,0.20821 -13.0265,0.75146 -6.5669,0.82458 -7.7445,0.6706 -7.1295,-0.93217 z m 29.6624,-51.08944 c 2.9333,-0.47653 5.5512,-0.77587 5.8176,-0.66517 0.9319,0.3873 4.1824,-6.95011 4.1824,-9.44111 0,-1.38284 -1.2455,-3.75975 -2.7678,-5.282 -2.32,-2.32006 -3.8836,-2.65324 -9.6666,-2.05981 -3.7944,0.38937 -7.2993,0.73487 -7.7887,0.76776 -0.4894,0.0329 -0.7894,4.22774 -0.6667,9.3219 0.2045,8.48982 0.4455,9.21887 2.8898,8.7435 1.4667,-0.28524 5.0667,-0.90852 8,-1.38507 z m -791.33331,29.13324 c -9.46736,-0.98621 -25.1391,-4.98935 -24.3747,-6.22617 0.4327,-0.70014 0.18192,-0.89916 -0.55731,-0.4423 -1.56835,0.9693 -20.50172,-4.51082 -19.75559,-5.7181 0.27658,-0.44751 -0.62965,-0.89895 -2.01384,-1.00322 -1.38418,-0.10426 -4.7819,-1.72882 -7.55048,-3.61012 -2.76857,-1.88129 -5.6899,-3.42053 -6.49184,-3.42053 -0.80193,0 -2.86724,-1.5 -4.58957,-3.33333 -1.72233,-1.83334 -3.60027,-3.33334 -4.1732,-3.33334 -1.92393,0 -9.78031,-6.02117 -15.16013,-11.61882 -2.93334,-3.0521 -7.88334,-8.21611 -11.00001,-11.47559 -5.59692,-5.85338 -7.66005,-11.28916 -3.70937,-9.77313 1.07652,0.41309 2.26557,0.25229 2.64236,-0.35735 0.93068,-1.50586 7.40035,-1.41394 7.40035,0.10507 0,0.66747 1.19057,0.57641 2.64571,-0.20236 1.45514,-0.77877 5.80514,-1.69772 9.66666,-2.04212 23.04599,-2.05541 37.56232,-3.01499 59.68763,-3.94551 24.83069,-1.0443 38.77145,-2.01884 48,-3.35545 4.76667,-0.69039 15.26667,-1.64149 23.33334,-2.11359 8.06666,-0.47208 20.21194,-1.25413 26.98952,-1.73789 7.96838,-0.56876 12.52625,-0.39729 12.89848,0.48523 0.35494,0.84153 1.03544,0.71397 1.77492,-0.33274 1.71636,-2.42945 11.2198,-3.4323 12.55732,-1.32512 0.8461,1.33302 1.07656,1.33779 1.09268,0.0227 0.0145,-1.18832 3.17754,-1.69709 11.02041,-1.77269 6.05,-0.0583 15.98761,-0.52047 22.08359,-1.02703 6.09596,-0.50656 11.7417,-0.51427 12.54609,-0.0171 1.70591,1.0543 -1.12845,9.15018 -3.20347,9.15018 -0.68764,0 -0.8498,0.64794 -0.36036,1.43989 0.48946,0.79193 -0.37514,2.32596 -1.9213,3.40893 -1.54618,1.08298 -2.81122,2.71526 -2.81122,3.6273 0,2.64944 -13.41445,16.96445 -14.98666,15.99277 -0.81474,-0.50353 -1.03883,-0.25551 -0.52311,0.57894 0.95643,1.54755 -2.1732,4.97142 -9.82356,10.74716 -2.56667,1.93774 -4.96667,3.84044 -5.33333,4.22822 -1.65224,1.74737 -8.76642,5.87357 -9.66667,5.60662 -0.55,-0.16308 -1,0.23352 -1,0.88132 0,1.04424 -1.26656,1.6153 -6,2.70519 -0.73333,0.16885 -2.23333,1.09712 -3.33333,2.0628 -2.82484,2.47991 -14.0534,7.38592 -16.92686,7.39573 -1.32356,0.004 -4.1599,0.92259 -6.30297,2.04016 -3.1196,1.62682 -4.11244,1.69164 -4.97957,0.32512 -0.69587,-1.09658 -1.0904,-1.16654 -1.10352,-0.19566 -0.0295,2.1799 -4.28358,3.48965 -16.61086,5.11412 -3.62474,0.47766 -7.07475,1.16778 -7.66667,1.53362 -0.59192,0.36583 -1.07622,-0.0437 -1.07622,-0.91014 0,-1.14999 -0.55904,-1.11132 -2.07071,0.14325 -1.27524,1.05836 -7.49539,1.9598 -16.19199,2.34657 -11.78418,0.5241 -13.94678,0.32187 -13.06701,-1.22194 0.85189,-1.49488 0.7096,-1.53007 -0.74136,-0.18331 -0.98757,0.91667 -2.4256,1.57064 -3.1956,1.45328 -0.77,-0.11733 -3.5,-0.43213 -6.06667,-0.69951 z m 250.45905,-37.96527 c -3.91649,-5.16741 -7.15839,-10.99267 -6.35101,-11.41194 0.30725,-0.15956 -0.50947,-1.53756 -1.81492,-3.06223 -1.30547,-1.52466 -1.96276,-3.43682 -1.46066,-4.24924 0.54152,-0.8762 0.30598,-1.10201 -0.57897,-0.55508 -1.70879,1.05608 -8.68211,-11.63693 -7.20476,-13.11429 0.51099,-0.51099 -0.116,-1.51387 -1.39316,-2.22864 -1.27723,-0.71477 -2.32223,-2.16977 -2.32223,-3.23333 0,-1.06356 -0.6,-1.93375 -1.33333,-1.93375 -2.60371,0 -1.31235,-5.16029 1.516,-6.05797 4.94204,-1.56855 24.46305,-2.86272 24.947,-1.65391 0.25551,0.63824 1.15179,0.61291 2,-0.0565 0.84535,-0.66716 11.55208,-1.59764 23.79273,-2.06772 12.24066,-0.47008 23.04066,-1.11764 24,-1.43902 3.83538,-1.28482 19.74791,-1.80946 19.01711,-0.62698 -0.41996,0.67949 0.0219,1.24462 0.9818,1.25585 1.06594,0.012 1.22632,0.40175 0.41203,1 -0.73333,0.53877 -1.40172,2.77959 -1.48529,4.97959 -0.0836,2.2 -1.78076,8.2 -3.77153,13.33333 -1.99076,5.13333 -3.79062,10.53333 -3.99969,12 -0.96244,6.7518 -3.63348,13.7888 -6.0712,15.9949 -1.46976,1.33012 -2.67229,2.04026 -2.67229,1.57808 0,-0.46217 -1.65,-0.20338 -3.66667,0.57508 -2.01667,0.77847 -7.13769,1.6412 -11.38007,1.91719 -4.24236,0.27599 -8.14236,0.76484 -8.66666,1.08635 -0.5243,0.3215 -7.29024,0.99874 -15.03542,1.50498 l -14.08214,0.92043 -3.37667,-4.45517 z m 159.64832,-14.28145 c -0.76112,-1.23152 -2.3832,-23.84909 -2.64153,-36.83237 -0.0729,-3.66225 0.46751,-6.67144 1.20084,-6.68708 0.73333,-0.0156 2.00468,-0.45604 2.8252,-0.97868 1.21001,-0.77071 40.39084,-3.36737 50.50814,-3.34737 1.46666,0.003 6.26666,-0.40458 10.66666,-0.90552 4.4,-0.50094 11.3,-1.14203 15.33334,-1.42466 4.03333,-0.28262 9.73333,-0.83106 12.66666,-1.21874 5.68204,-0.75098 23.2329,-2.16655 35.33334,-2.84983 4.03333,-0.22775 16.03333,-1.03483 26.66664,-1.79351 10.6334,-0.75869 29.53335,-2.02072 41.99995,-2.8045 12.4667,-0.7838 25.435,-1.77048 28.8184,-2.19263 5.9056,-0.73681 6.1905,-0.61488 7.1216,3.04683 0.5334,2.09789 1.2492,8.91434 1.5907,15.14768 0.3416,6.23333 0.6814,12.23333 0.7552,13.33333 0.3898,5.80941 -0.1444,6.2506 -7.8749,6.50321 -8.5195,0.2784 -40.0724,3.81191 -41.4921,4.64658 -0.5054,0.2971 -5.4189,0.92205 -10.91885,1.38876 -5.5,0.46669 -12.1,1.1717 -14.6666,1.56666 -2.5667,0.39498 -7.3667,0.98802 -10.66671,1.31788 -3.3,0.32986 -8.1,0.83476 -10.66667,1.12202 -2.56666,0.28724 -9.76666,0.88634 -16,1.33134 -6.23333,0.44499 -12.83333,1.1017 -14.66666,1.45934 -1.83334,0.35765 -7.1213,0.94145 -11.75102,1.29734 -4.62973,0.3559 -8.8914,0.93986 -9.47036,1.29768 -0.57897,0.35782 -5.39661,0.96714 -10.70585,1.35403 -5.30924,0.38691 -13.34759,1.28993 -17.86297,2.00673 -7.96843,1.26498 -17.02061,2.16846 -33.54314,3.34788 -4.4,0.3141 -11.10208,0.91895 -14.89351,1.34414 -3.79142,0.42517 -7.24104,0.21073 -7.6658,-0.47654 z M 243.38464,303.46288 c 0.0804,-1.43453 0.81964,-3.03573 1.64287,-3.55821 2.61524,-1.65986 11.16988,-20.06195 11.16988,-24.02782 0,-2.09608 0.42547,-4.23653 0.94548,-4.75654 0.52001,-0.52002 0.82913,-6.21727 0.68692,-12.66056 l -0.25855,-11.71508 8.31307,-3.39738 c 4.5722,-1.86854 10.41308,-3.82456 12.97975,-4.3467 2.56666,-0.52215 10.66666,-2.93176 18,-5.35471 7.33333,-2.42295 16.03333,-5.17629 19.33333,-6.11856 3.3,-0.94228 7.63,-2.51165 9.62223,-3.48752 1.99221,-0.97587 5.14221,-1.90009 7,-2.05385 1.85777,-0.15376 3.37777,-0.72151 3.37777,-1.26166 0,-0.54016 2.25,-1.3936 5,-1.89653 2.75,-0.50293 11.57983,-3.23012 19.62183,-6.06043 8.042,-2.83029 15.62205,-5.14598 16.84456,-5.14598 2.42808,0 4.34895,6.4043 2.59944,8.66666 -1.29913,1.67996 0.26861,13.57168 3.15104,23.90134 1.21265,4.34573 2.36817,8.84573 2.56781,10 0.59122,3.41828 4.40187,9.91752 7.41215,12.6418 1.54175,1.39525 2.80317,3.64384 2.80317,4.99685 0,1.353 0.55958,2.46001 1.24348,2.46001 0.68392,0 1.62048,1.18782 2.08126,2.63959 0.46077,1.45176 1.25121,2.58071 1.75652,2.50877 2.60325,-0.37065 4.25208,0.36515 4.25208,1.8975 0,2.12678 7.27085,6.57218 8.59069,5.25234 0.53067,-0.53068 0.76487,-0.11386 0.52041,0.92614 -0.36669,1.56018 2.23864,3.6881 7.04599,5.75485 0.45305,0.19479 1.22101,1.63333 1.70656,3.19677 0.78408,2.52471 0.2446,2.93438 -4.82375,3.66307 -3.13861,0.45124 -12.60657,1.14171 -21.0399,1.53437 -8.43334,0.39266 -19.53334,1.01908 -24.66667,1.39204 -5.13333,0.37298 -17.76729,0.92763 -28.07547,1.23258 -10.30817,0.30493 -19.60817,0.84014 -20.66666,1.18934 -4.10971,1.35579 -54.5285,4.7937 -68.73729,4.68698 -11.18732,-0.084 -12.13456,-0.29711 -12,-2.69947 z M 77.746957,293.28801 c 0.21113,-1.28333 -0.1173,-3.13306 -0.72984,-4.1105 -0.61254,-0.97744 -1.35788,-3.97744 -1.65631,-6.66667 -0.739791,-6.66628 -1.379711,-10.52628 -4.568335,-27.55616 -1.51038,-8.06667 -3.654929,-20.06667 -4.765668,-26.66667 -1.110738,-6.6 -2.944368,-16.06218 -4.074734,-21.02708 -1.130365,-4.96488 -1.774796,-10.49394 -1.432069,-12.28681 0.342727,-1.79285 0.164873,-3.43068 -0.395231,-3.63959 -0.560102,-0.20892 -1.279974,-3.97985 -1.599716,-8.37985 -0.31974,-4.4 -0.938184,-8.9 -1.374318,-10 -1.56427,-3.94532 -4.93448,-22.95185 -4.262567,-24.03903 0.377324,-0.61052 0.09915,-1.47276 -0.618169,-1.91609 -0.717318,-0.44333 -1.266494,-3.96403 -1.220391,-7.82379 l 0.08383,-7.01774 12.865308,-1.76983 c 7.075917,-0.9734 14.9653,-1.94179 17.53197,-2.15196 5.26076,-0.43079 25.583003,-3.10525 30.666673,-4.03582 1.83333,-0.33559 8.73333,-0.91459 15.33333,-1.28665 6.6,-0.37206 15.3,-1.11507 19.33333,-1.65112 9.95971,-1.32369 38.42274,-0.91042 50.66667,0.73567 8.99444,1.20922 17.06067,3.46529 24.66667,6.89912 14.97349,6.75996 21.13404,9.95288 24.28399,12.58603 2.04381,1.70848 5.0354,3.51914 6.64797,4.02369 1.99967,0.62567 2.66956,1.60116 2.10675,3.06784 -0.53383,1.39112 -0.29638,1.82363 0.67248,1.22484 2.3017,-1.42252 13.55778,8.72465 26.25017,23.66411 l 6.62803,7.80145 1.15224,-4.48869 c 0.63372,-2.46879 2.00112,-5.43594 3.03864,-6.59368 1.03752,-1.15775 1.8864,-3.40775 1.8864,-5 0,-1.59226 0.63541,-2.89502 1.41202,-2.89502 0.77662,0 1.0711,-0.55162 0.65442,-1.22584 -0.4167,-0.67421 -0.003,-2.04954 0.9213,-3.0563 2.1165,-2.30755 4.55738,-6.09718 6.6886,-10.38452 1.96978,-3.96258 4.39568,-7.1869 9.2211,-12.25594 1.96025,-2.05924 3.3225,-3.74406 3.02722,-3.74406 -0.29528,0 3.7354,-4.17183 8.95707,-9.27072 5.22167,-5.0989 9.89788,-9.1489 10.39158,-9 0.49369,0.14889 2.8785,-1.70246 5.29956,-4.11411 4.55566,-4.53798 13.27009,-9.615171 16.50333,-9.615171 1.01701,0 3.23272,-1.2 4.9238,-2.66667 2.83077,-2.45512 3.83049,-2.86779 6.18427,-2.55278 0.468,0.0626 1.2621,-0.55143 1.76465,-1.36457 0.50256,-0.81315 2.32283,-1.749817 4.04507,-2.081489 1.72222,-0.331672 6.77813,-1.807183 11.23533,-3.278912 4.45721,-1.471731 9.30401,-2.896168 10.77068,-3.165418 1.46667,-0.269249 3.56667,-0.86599 4.66667,-1.326092 8.82777,-3.692428 47.85421,-4.679968 63.35412,-1.603138 5.85524,1.162305 12.14588,2.788564 13.97921,3.613912 1.83334,0.825349 4.23334,1.617626 5.33334,1.760616 4.25172,0.552686 14.09473,3.86686 16,5.387251 1.1,0.87779 2.75,1.32428 3.66666,0.99219 0.91667,-0.33208 1.66667,-0.0188 1.66667,0.69611 0,0.71495 1.52453,1.68254 3.38787,2.1502 2.04934,0.51435 3.02153,1.44304 2.46065,2.35056 -0.54681,0.88476 -0.33004,1.13118 0.5284,0.60064 1.33808,-0.82699 3.74861,0.35746 15.94799,7.836221 2.42704,1.48789 4.37478,3.82156 4.43858,5.31803 0.0704,1.65054 0.38658,1.98174 0.82983,0.86918 0.49221,-1.23549 2.75211,0.2079 7.22807,4.61655 3.58157,3.52772 6.51194,5.73659 6.51194,4.9086 0,-0.82799 -0.54504,-1.70544 -1.2112,-1.94988 -0.66614,-0.24445 -1.41614,-1.64445 -1.66666,-3.11111 -0.25051,-1.46667 -0.8074,-2.96667 -1.23756,-3.33334 -0.43015,-0.36666 -2.43716,-3.51666 -4.46003,-7 -2.02287,-3.48333 -4.24723,-6.33333 -4.94303,-6.33333 -0.6958,0 -1.12114,-0.75 -0.94524,-1.666661 0.44179,-2.30208 -1.48734,-7.666671 -2.75696,-7.666671 -0.57254,0 -2.13221,-2.419902 -3.46593,-5.377559 -2.85605,-6.333609 -1.86948,-7.983599 5.16452,-8.637339 2.62531,-0.244 5.37487,-0.81542 6.11012,-1.26983 0.73524,-0.45441 5.70372,-1.06737 11.04105,-1.36214 5.33735,-0.29478 13.90426,-1.2159 19.03759,-2.04694 24.87821,-4.02759 34.03436,-4.50327 37.32684,-1.93921 2.11331,1.64577 2.29098,2.29982 0.8642,3.18161 -1.41374,0.87374 -1.20134,1.52646 0.99802,3.06695 1.53669,1.07634 2.3978,2.35316 1.91357,2.83738 -0.48423,0.48423 0.1196,0.88041 1.34181,0.88041 1.22223,0 2.22223,0.63777 2.22223,1.417268 0,1.962148 6.78837,16.091861 9.03172,18.799122 1.01012,1.21901 1.96459,3.01901 2.12104,4 0.15645,0.98098 1.85784,4.48361 3.78084,7.78361 1.923,3.3 4.8662,9 6.54045,12.66667 1.67424,3.66666 3.54782,7.01464 4.16351,7.43993 0.61568,0.42529 0.75571,1.72109 0.31117,2.87955 -0.53426,1.39225 0.1284,2.40356 1.95484,2.98325 1.51971,0.48233 2.7631,1.71013 2.7631,2.72844 0,1.01831 1.83274,4.95983 4.07277,8.75892 2.24003,3.79909 3.78972,7.64508 3.44375,8.54664 -0.41643,1.08523 -5.73575,1.94328 -15.73944,2.53893 -8.31072,0.49486 -18.11042,1.15286 -21.77708,1.46223 -3.66667,0.30937 -14.76667,0.94732 -24.66667,1.41765 -9.9,0.47034 -21.9,1.11148 -26.66667,1.42479 -4.76667,0.31331 -18.56667,0.88917 -30.66667,1.27971 -12.1,0.39053 -28,0.91248 -35.33333,1.15988 -12.11655,0.40876 -13.82005,0.15964 -18.66667,-2.72979 -2.93333,-1.74877 -4.73333,-3.2188 -4,-3.26671 1.9752,-0.12906 -14.44337,-6.28858 -19.57948,-7.34538 -8.47141,-1.74308 -27.31316,-1.69707 -34.98116,0.0855 -4.23164,0.98367 -8.4592,1.49483 -9.39457,1.1359 -0.93538,-0.35895 -2.05927,0.28186 -2.49755,1.42401 -0.43828,1.14215 -1.68907,2.07663 -2.77952,2.07663 -2.55527,0 -16.58461,9.81189 -19.03836,13.31512 -1.03432,1.47664 -2.74655,2.68484 -3.80496,2.68484 -1.05843,0 -1.9244,0.83002 -1.9244,1.84449 0,1.01447 -1.20248,2.15895 -2.67217,2.54328 -1.69323,0.44279 -2.39311,1.426 -1.91043,2.68383 0.42815,1.11574 -0.35092,2.77552 -1.77899,3.79006 -1.3974,0.99275 -2.96942,3.53583 -3.49338,5.65128 -1.07895,4.35615 -9.60942,13.3088 -11.5427,12.11396 -0.69794,-0.43136 -1.269,-0.14888 -1.269,0.62774 0,0.77661 -1.46458,1.41202 -3.25464,1.41202 -1.79005,0 -3.66038,0.65651 -4.15629,1.4589 -0.49591,0.80238 -2.33132,1.1856 -4.07869,0.85156 -1.74738,-0.33403 -3.17704,-0.0905 -3.17704,0.5411 0,0.63164 -1.46459,1.14844 -3.25464,1.14844 -1.79006,0 -3.65778,0.65227 -4.15048,1.4495 -0.49271,0.79721 -2.02812,1.15338 -3.41203,0.79149 -1.38391,-0.36191 -2.51619,-0.25283 -2.51619,0.24237 0,1.56991 -19.8206,8.53746 -21.95575,7.71812 -1.12434,-0.43145 -2.04425,-0.27326 -2.04425,0.35152 0,0.62479 -1.05,1.4648 -2.33333,1.86671 -1.28334,0.40189 -7.65416,2.56351 -14.15739,4.80359 -6.50323,2.24009 -12.33628,3.7563 -12.96233,3.36938 -0.62607,-0.38693 -2.62394,0.26992 -4.43972,1.45968 -1.8158,1.18975 -4.08275,2.3225 -5.03767,2.5172 -0.95492,0.19471 -3.42528,1.04622 -5.48969,1.89223 -2.0644,0.84601 -3.97535,1.53821 -4.24654,1.53821 -0.27118,0 -2.18213,0.68222 -4.24653,1.51602 -2.06441,0.83381 -5.25347,1.65566 -7.0868,1.82634 -1.83333,0.17067 -4.23333,0.68216 -5.33333,1.13664 -3.11272,1.28606 -5.34688,-0.9183 -5.977,-5.8973 -0.66462,-5.25143 -7.06896,-18.5817 -8.92732,-18.5817 -0.68919,0 -0.87284,-0.6152 -0.40815,-1.3671 0.46471,-0.75191 -1.29884,-3.51087 -3.91901,-6.13104 -2.62016,-2.62016 -4.42955,-5.30496 -4.02087,-5.96623 0.40868,-0.66127 -0.0947,-1.20229 -1.11861,-1.20229 -1.02391,0 -4.35932,-2.37598 -7.41202,-5.27992 -3.05269,-2.90396 -5.55036,-4.99178 -5.55036,-4.63958 0,0.3522 -2.32722,-0.5469 -5.17162,-1.99801 -2.84439,-1.45109 -6.59439,-2.91655 -8.33334,-3.25655 -1.73893,-0.34 -7.36171,-1.62022 -12.49504,-2.84496 -11.7644,-2.80678 -39.16917,-1.48268 -41.31937,1.99642 -0.32847,0.53148 0.6039,7.80397 2.07194,16.16112 1.46804,8.35714 2.92036,16.69481 3.22739,18.52814 0.30703,1.83334 0.92317,4.83334 1.3692,6.66667 0.44604,1.83333 1.40804,7.83333 2.13779,13.33333 0.72974,5.5 1.85638,12.36771 2.50364,15.26156 0.64725,2.89386 0.90437,5.7024 0.57137,6.2412 -0.333,0.5388 0.004,1.35652 0.74963,1.81714 0.74529,0.46061 1.35508,2.50022 1.35508,4.53245 0,3.40479 -0.81156,3.98268 -10.33334,7.35823 -16.13661,5.72054 -29.66666,9.97374 -29.66666,9.32577 0,-0.3248 -2.25,0.54557 -5,1.93417 -5.915633,2.987 -18.879833,6.86278 -22.955693,6.86278 -1.99887,0 -2.76129,-0.7131 -2.49474,-2.33334 z m 423.063883,-4.41945 c -0.64636,-1.04584 -0.44726,-1.96928 0.49213,-2.2824 0.86773,-0.28925 1.23856,-1.07467 0.82404,-1.74536 -0.41451,-0.67069 -0.21808,-1.21945 0.43651,-1.21945 3.30736,0 21.63388,-21.50802 21.63388,-25.38954 0,-0.76085 1.26484,-3.86265 2.81076,-6.8929 7.03141,-13.78272 7.03244,-38.42334 0.003,-53.61218 -2.29045,-4.94853 -3.76766,-9.63934 -3.2827,-10.42404 0.50053,-0.80988 0.25773,-1.04104 -0.5616,-0.53466 -0.79384,0.49062 -1.82654,-0.31528 -2.29487,-1.7909 -0.46835,-1.4756 -2.22144,-3.02674 -3.89577,-3.44697 -2.2601,-0.56725 -3.07268,-1.76413 -3.15463,-4.6466 -0.0607,-2.1354 0.29917,-4.13041 0.79977,-4.43336 0.50059,-0.30296 14.41016,-0.94312 30.91016,-1.42259 16.5,-0.47946 31.35,-1.20706 33,-1.61689 2.00007,-0.49677 3.0068,-0.14143 3.02042,1.06608 0.0172,1.52047 0.20392,1.52163 1.16354,0.007 0.81199,-1.28139 5.34452,-1.94672 15.64626,-2.29674 7.97672,-0.27101 18.80495,-0.82988 24.06273,-1.24192 6.46516,-0.50666 9.86402,-0.25664 10.5,0.77242 0.68103,1.10193 1.19155,1.11518 1.85107,0.0481 1.48367,-2.40063 36.71689,-3.63951 40.83449,-1.43584 1.84339,0.98655 3.04631,2.5782 2.67663,3.54157 -0.36929,0.96236 -0.15005,1.74975 0.48721,1.74975 0.63726,0 4.64932,7.05 8.91571,15.66667 4.26637,8.61666 8.19245,15.85542 8.7246,16.08614 0.53215,0.23071 0.63705,1.28071 0.23312,2.33334 -0.40392,1.05261 -0.11067,1.91385 0.65172,1.91385 1.69233,0 3.54768,4.68148 4.07871,10.29149 0.0863,0.91138 1.07589,1.27098 2.25382,0.81896 1.43743,-0.5516 1.96328,-0.14529 1.66667,1.28775 -0.23835,1.15148 0.11107,2.28295 0.77643,2.51436 1.33236,0.4634 7.21789,-15.83571 8.07224,-22.35491 0.56357,-4.30034 5.44757,-19.60488 7.45085,-23.34805 0.64004,-1.19591 1.39399,-4.26416 1.67545,-6.81833 0.75464,-6.84787 1.52359,-7.44003 9.78947,-7.53876 4.14937,-0.0496 11.43343,-0.46586 16.1868,-0.9251 6.49554,-0.62754 8.92387,-0.39102 9.77519,0.95215 0.77753,1.22673 1.13912,1.28631 1.15313,0.18999 0.0133,-1.04508 2.67036,-1.62056 7.68708,-1.66492 4.21667,-0.0373 12.76667,-0.58195 19,-1.21038 6.28739,-0.63386 11.89768,-0.63425 12.60087,-8.8e-4 0.79471,0.71582 0.62151,2.92826 -0.46429,5.93102 -0.95251,2.63412 -1.87708,6.08372 -2.05459,7.66578 -0.28908,2.57638 -4.55188,15.90899 -7.31424,22.8765 -0.58149,1.46666 -2.79211,8.06666 -4.91249,14.66666 -2.12039,6.6 -4.30526,12.2 -4.85526,12.44444 -0.55,0.24446 -1,1.83344 -1,3.53108 0,3.01748 -7.79073,26.03848 -9.25838,27.35782 -0.4079,0.36666 -0.85648,2.3306 -0.99687,4.36429 -0.1404,2.03369 -1.52184,6.23369 -3.06987,9.33333 -2.41233,4.83024 -3.42396,5.64483 -7.07808,5.69948 -11.22956,0.16798 -45.76775,2.05495 -58.35157,3.18799 -7.74847,0.69768 -20.786,1.65703 -28.97231,2.13189 l -14.88419,0.8634 -1.57505,-3.45685 c -0.86673,-1.90077 -2.0792,-3.45636 -2.69483,-3.45636 -0.61561,0 -1.1193,-1.05319 -1.1193,-2.34043 0,-1.28724 -2.25,-5.88572 -5,-10.21884 -2.75,-4.33313 -5,-8.28028 -5,-8.77144 0,-0.49117 -1.8,-3.7407 -4,-7.2212 -2.2,-3.48049 -4,-6.8607 -4,-7.51157 0,-0.65087 -0.9,-2.30141 -2,-3.66787 -3.79567,-4.71509 -12.15459,-21.6065 -11.34248,-22.9205 0.45596,-0.73779 -0.0432,-0.98852 -1.13448,-0.56978 -1.82115,0.69884 -3.42359,-1.99274 -4.35295,-7.31156 -0.17937,-1.02658 -0.83909,-2.22658 -1.46604,-2.66666 -0.62696,-0.44008 -2.52285,-2.90015 -4.21312,-5.46682 -1.69025,-2.56666 -2.66721,-3.46666 -2.171,-2 1.30392,3.85403 2.32808,51.07883 1.14911,52.98643 -0.54588,0.88325 -0.82886,3.87264 -0.62882,6.64308 0.20003,2.77044 -0.13213,5.03716 -0.73826,5.03716 -0.60608,0 -1.19391,1.65 -1.30628,3.66667 -0.31454,5.64425 -1.96263,11.45725 -3.87476,13.66666 -1.70043,1.96479 -1.92093,2.58603 -1.92093,5.41203 0,0.77661 -0.53225,1.08307 -1.1828,0.68101 -0.65053,-0.40205 -1.10053,0.2421 -1,1.43146 0.22395,2.64918 0.8092,2.56128 -24.48386,3.67722 -11.36667,0.50151 -22.76667,1.17383 -25.33334,1.49404 -2.56666,0.32022 -8.56666,0.8608 -13.33333,1.2013 -4.76667,0.34049 -13.83439,1.02878 -20.15049,1.52954 -8.8399,0.70083 -11.73376,0.50606 -12.5694,-0.84605 z m 624.71986,-0.88139 c -3.4191,-1.24848 -10.8143,-10.0579 -10.0705,-11.99628 0.3886,-1.01276 0.2205,-1.54096 -0.3736,-1.17376 -1.6516,1.02074 -9.7889,-9.39538 -11.3505,-14.52912 -1.5489,-5.09196 0.91,-6.43384 12.6825,-6.92112 6.1116,-0.25298 13.2121,-0.73152 15.7788,-1.06342 2.5666,-0.3319 16.5281,-1.01498 31.0254,-1.51795 26.3565,-0.91441 26.3591,-0.91423 29.6667,2.19308 1.8193,1.70917 3.3079,3.87247 3.3079,4.80731 0,0.93485 2.1,3.30148 4.6666,5.25917 2.5667,1.95769 4.6667,4.26637 4.6667,5.1304 0,0.86403 1.7746,3.04281 3.9435,4.84175 4.0468,3.35644 5.358,7.80457 2.3898,8.10761 -0.9166,0.0936 -2.8666,0.33871 -4.3333,0.54471 -5.2772,0.7412 -22.8892,2.14218 -34,2.70461 -12.5028,0.63288 -40.8534,3.12683 -44,3.87059 -1.1,0.26 -2.9,0.14409 -4,-0.25758 z m -284.16747,-24.625 c -0.0921,-1.69078 -0.32011,-6.37416 -0.50661,-10.40749 -0.18651,-4.03333 -0.80258,-12.43333 -1.36904,-18.66667 -0.56647,-6.23333 -1.19272,-14.63333 -1.39168,-18.66666 -0.19896,-4.03334 -0.99518,-12.40555 -1.76938,-18.60492 -1.01232,-8.10615 -0.99852,-11.52443 0.0492,-12.17194 1.03964,-0.64253 1.0228,-1.04501 -0.0588,-1.40556 -0.8336,-0.27786 -1.89514,-2.84377 -2.35897,-5.70202 -0.68964,-4.24975 -0.50167,-4.99091 1.03144,-4.06692 1.47596,0.88956 1.55957,0.72093 0.39311,-0.7927 -2.55324,-3.31312 -3.30988,-11.95838 -1.12015,-12.79866 1.05589,-0.40519 1.6342,-1.19884 1.28512,-1.76366 -0.34908,-0.56482 0.85437,-1.02696 2.67433,-1.02696 1.81996,0 3.30902,0.56042 3.30902,1.24536 0,0.68495 0.75,0.77682 1.66666,0.20416 0.91667,-0.57266 2.56667,-1.20854 3.66667,-1.41308 5.61892,-1.04476 34.11623,-2.21636 55.6624,-2.28841 13.38098,-0.0448 24.33098,-0.54089 24.33334,-1.10253 0.003,-0.56166 1.65426,-0.92636 3.67093,-0.81046 2.01667,0.11587 15.81667,-0.25105 30.66667,-0.81546 l 26.99996,-1.02622 0.1785,6.50332 c 0.2814,10.25422 0.8966,20.3405 1.9088,31.29531 l 0.9355,10.12532 -9.8447,1.09888 c -5.4146,0.6044 -12.01466,1.21311 -14.66681,1.35271 -2.65215,0.13958 -5.35215,0.56117 -6,0.93684 -1.14203,0.66222 -10.79644,1.71965 -28.376,3.10797 -4.69227,0.37056 -9.04227,0.98948 -9.66667,1.37537 -0.62438,0.3859 -1.13525,-0.0537 -1.13525,-0.97705 0,-1.30565 -0.35556,-1.32313 -1.6,-0.0787 -0.88,0.88 -2.69485,1.6 -4.033,1.6 -2.83368,0 -5.1408,5.09244 -4.33485,9.5682 0.30688,1.70416 0.83518,7.29847 1.17404,12.4318 0.33885,5.13334 1.03801,11.91607 1.55366,15.07274 l 0.93756,5.73938 13.40026,-0.24893 c 7.37013,-0.13692 15.23821,-0.73752 17.48462,-1.33467 2.2464,-0.59714 8.28438,-1.38284 13.41771,-1.74598 5.13333,-0.36315 9.33333,-0.7807 9.33333,-0.92787 0,-0.14717 2.1,-0.38943 4.66667,-0.53835 2.56663,-0.14892 6.46663,-0.64892 8.66663,-1.11112 2.2,-0.4622 7.3967,-0.99856 11.5482,-1.19192 4.1514,-0.19334 7.26595,-0.80793 6.92125,-1.36574 -0.3448,-0.55782 -0.1414,-1.01395 0.4518,-1.01363 1.5897,8.4e-4 0.2355,-27.46193 -2.42305,-49.14244 -1.2104,-9.87044 -1.1818,-12.69027 0.1369,-13.50525 1.33275,-0.82374 1.33225,-1.14155 0,-1.5865 -1.1213,-0.37378 -1.8805,-4.80325 -2.3129,-13.49474 -0.5948,-11.9559 -0.4542,-12.94644 1.8517,-13.04543 1.3725,-0.0589 5.64535,-0.26621 9.49535,-0.46067 3.8668,-0.1953 7,0.22412 7,0.93704 0,0.70983 0.8587,0.57792 1.9083,-0.29314 1.0496,-0.87106 7.1996,-1.78638 13.6667,-2.03404 25.926,-0.99288 46.6562,-2.14211 50.8594,-2.81951 2.6766,-0.43136 5.2886,-0.0225 6.5893,1.0314 1.5918,1.28983 1.8932,1.31057 1.1536,0.0793 -0.7429,-1.23658 0.6533,-1.69184 5.4107,-1.7642 3.5266,-0.0536 11.812,-0.31186 18.412,-0.57381 6.6,-0.26195 22.2,-0.84653 34.6667,-1.29911 12.4666,-0.45256 26.3592,-1.12996 30.8724,-1.50534 8.2224,-0.6839 12.3284,1.08558 8.2984,3.57624 -1.0106,0.6246 -1.9125,1.7575 -2.0042,2.5176 -0.092,0.76008 -0.2416,1.92062 -0.3333,2.57901 -0.7058,5.06944 -22.2161,22.72131 -28.2409,23.17515 -1.4258,0.10746 -2.5924,0.91485 -2.5924,1.79434 0,0.87948 -2.4469,2.01246 -5.4376,2.51774 -5.2844,0.89278 -5.3569,0.97509 -2.5771,2.9222 1.6174,1.13286 2.5385,2.84264 2.1195,3.93444 -0.4075,1.062 -0.2912,1.65296 0.2585,1.31322 1.7529,-1.08337 5.9648,2.86959 4.8975,4.59648 -0.6148,0.99478 -0.451,1.28492 0.4212,0.74592 1.6584,-1.02496 11.2495,9.62948 10.1988,11.32955 -0.3876,0.62731 0.2867,1.14057 1.4986,1.14057 1.212,0 2.5156,1.19326 2.897,2.65167 0.3814,1.45843 1.2303,2.31988 1.8864,1.91435 0.6562,-0.40554 1.75,0.65121 2.4306,2.34833 0.6807,1.69711 1.2756,2.54385 1.3221,1.88164 0.046,-0.66221 1.272,0.16524 2.7235,1.83877 1.4514,1.67352 2.2552,3.71534 1.7862,4.53735 -0.469,0.822 -0.3602,1.0482 0.2418,0.50264 1.9258,-1.74521 21.5157,20.53896 20.0873,22.85008 -0.4437,0.71801 -1.845,1.29905 -3.1139,1.29117 -1.2689,-0.008 -5.3071,0.29994 -8.9738,0.684 -5.4367,0.56948 -39.6977,3.03962 -47.3333,3.41262 -1.1,0.0537 -6.9804,0.46088 -13.0675,0.90477 -12.8098,0.93413 -12.6417,1.02653 -22.4588,-12.34505 -3.421,-4.65978 -6.7272,-8.47232 -7.3469,-8.47232 -0.6197,0 -1.033,-0.45 -0.9185,-1 0.3893,-1.86892 -2.2022,-6.84132 -3.5169,-6.74803 -0.7197,0.0511 -2.4375,-1.93473 -3.8173,-4.41289 -1.3798,-2.47816 -3.1487,-4.90776 -3.9309,-5.39912 -0.7822,-0.49136 -1.5705,-1.90414 -1.7518,-3.13951 -0.1813,-1.23537 -1.5736,-3.11737 -3.0939,-4.18223 -1.5203,-1.06485 -2.7641,-2.83749 -2.7641,-3.93918 0,-1.1017 -0.6,-1.63227 -1.3334,-1.17904 -0.7333,0.45322 -1.3333,4.8443 -1.3333,9.75796 0,7.6095 0.4119,9.19113 2.7782,10.66896 1.6348,1.02092 2.4643,2.55338 2.0153,3.7233 -0.4308,1.12272 -0.1892,1.63366 0.5551,1.17367 1.3792,-0.85239 1.4564,-0.67337 1.9855,4.60737 0.3143,3.136 -1.9509,6.73536 -4.2389,6.73544 -0.6024,3e-5 -1.0824,4.20475 -1.0668,9.34384 l 0.028,9.34382 -15.3617,-0.008 c -8.449,-0.004 -17.4618,0.2572 -20.0285,0.5818 -2.5666,0.3246 -17.5666,1.50574 -33.3333,2.62477 -15.76665,1.11903 -30.76665,2.33087 -33.3333,2.69296 -4.59224,0.64785 -14.27012,1.45828 -32.66667,2.73548 -5.13333,0.35639 -19.83333,0.99844 -32.66666,1.42679 -12.83334,0.42833 -26.93334,1.26134 -31.33334,1.85113 -4.4,0.58977 -14.15,1.18117 -21.66667,1.31421 -13.40778,0.2373 -13.66984,0.18366 -13.83417,-2.83229 z M 708.17808,154.13707 c -0.0107,-1.75031 1.23671,-7.38239 2.77184,-12.51572 1.53513,-5.13334 3.34383,-11.17594 4.01931,-13.428 0.67549,-2.25207 1.22817,-5.10206 1.22817,-6.33333 0,-1.23127 0.6,-2.23867 1.33333,-2.23867 0.73334,0 1.33334,-1.98 1.33334,-4.4 0,-2.42 0.5652,-4.97 1.256,-5.66667 0.69081,-0.69667 1.8811,-5.16343 2.6451,-9.926141 0.764,-4.76272 1.9988,-8.862717 2.744,-9.111115 0.74519,-0.248398 1.3549,-1.599243 1.3549,-3.001879 0,-1.402635 1.16653,-6.002635 2.59229,-10.222225 1.42576,-4.21958 2.99099,-10.50264 3.47828,-13.96234 1.06304,-7.54737 2.47224,-8.90336 10.09698,-9.71565 3.20785,-0.34174 7.03245,-0.86 8.49912,-1.15168 3.63705,-0.72331 14.22732,-1.98971 24.6497,-2.94764 4.75734,-0.43725 8.95734,-0.98037 9.33334,-1.20692 0.376,-0.22656 5.48362,-0.79281 11.35029,-1.25834 9.68901,-0.76884 26.63308,-2.39034 43.89613,-4.20075 3.60955,-0.37854 6.95872,-0.93294 7.44262,-1.232 1.44424,-0.89259 59.54179,-6.94479 76.66125,-7.98604 0.73334,-0.0446 1.93334,-0.43946 2.66667,-0.87746 0.73333,-0.43801 2.83333,-0.65432 4.66667,-0.4807 1.83333,0.17362 3.93333,-0.0482 4.66666,-0.49285 0.73334,-0.44469 2.53334,-0.86336 4,-0.93038 3.52902,-0.16126 17.627,-1.82732 22.66667,-2.67868 5.06343,-0.85538 14.55581,-1.79753 27.33331,-2.71292 15.05275,-1.0784 19.78945,-1.57071 29.99995,-3.11803 29.7377,-4.50653 56.1539,-6.78747 76.9898,-6.64779 12.2777,0.0823 22.6631,0.69983 23.0787,1.37226 0.4156,0.67243 2.2202,1.2226 4.0102,1.2226 1.7901,0 3.2547,0.53323 3.2547,1.18495 0,0.65172 2.2221,1.60181 4.9379,2.11132 6.9577,1.30526 13.4706,4.89042 20.4139,11.23718 3.2892,3.00661 6.466,5.46655 7.0596,5.46655 0.5936,0 0.772,0.49713 0.3965,1.10473 -0.3755,0.60759 1.0122,2.9604 3.0837,5.22846 2.0716,2.26806 5.1192,7.62093 6.7726,11.89528 1.6534,4.27434 3.9804,10.15222 5.171,13.06194 3.3702,8.23622 3.0967,45.6769 -0.3981,54.49544 -1.7416,4.39459 -3.6542,6.87809 -5.9971,7.7869 -1.892,0.73392 -14.84,1.60917 -28.7734,1.94501 -13.9333,0.33586 -31.7833,0.97342 -39.6666,1.41683 -9.9137,0.5576 -14.3334,0.35995 -14.3334,-0.64101 0,-0.79596 1.1739,-1.81978 2.6086,-2.27514 1.4347,-0.45536 4.774,-4.24578 7.4207,-8.42318 4.4684,-7.05267 4.7788,-8.21438 4.3451,-16.26192 -0.5384,-9.989521 -5.2826,-20.89304 -10.0321,-23.057101 -1.6549,-0.754017 -3.0089,-1.874632 -3.0089,-2.490259 0,-0.61562 -1.2,-1.11931 -2.6667,-1.11931 -1.4667,0 -2.6667,-0.63541 -2.6667,-1.41202 0,-0.77661 -0.5496,-1.07232 -1.2214,-0.65713 -0.6718,0.41519 -2.9218,0.10739 -5,-0.68401 -3.375,-1.28524 -17.2416,-1.68984 -25.5519,-0.74556 -3.9688,0.45098 -5.4914,2.96026 -4.9097,8.091586 0.254,2.240591 0.8185,9.773803 1.2544,16.740474 0.436,6.96666 1.1608,17.8864 1.6107,24.26609 l 0.818,11.59941 -3.4065,0.85499 c -1.8736,0.47024 -7.1986,0.59404 -11.8334,0.27513 -4.6347,-0.31892 -9.6634,-0.13133 -11.1748,0.41676 -1.5113,0.54813 -12.3005,1.40521 -23.97595,1.90461 -11.6754,0.49939 -21.6123,1.14546 -22.0819,1.4357 -1.2149,0.75084 -2.1995,-6.33923 -3.9734,-28.61225 -1.66974,-20.965031 -2.45633,-22.896834 -8.89097,-21.835341 -2.01471,0.33235 -6.06311,0.81507 -8.99644,1.07269 -2.93333,0.25763 -7.73333,0.80623 -10.66667,1.2191 -2.93333,0.41288 -9.53333,1.34431 -14.66666,2.06984 -5.13334,0.72553 -12.33334,1.62601 -16,2.00107 -3.66667,0.37507 -8.01667,0.98968 -9.66667,1.365801 -1.88947,0.43072 -3.00756,0.0575 -3.02041,-1.008201 -0.0161,-1.34041 -0.23952,-1.34706 -1.07462,-0.032 -0.57981,0.913041 -4.80032,2.051611 -9.37892,2.530171 l -8.32472,0.87011 1.02084,12.80316 c 0.56147,7.04173 1.04118,16.94176 1.066,22.00004 0.0401,8.18228 -0.24902,9.24454 -2.6215,9.62889 -5.2589,0.85196 -16.26607,1.71933 -32.00001,2.52161 -8.8,0.44872 -19.77457,1.11175 -24.38794,1.47342 -12.72687,0.9977 -13.08919,0.72288 -14.76178,-11.19731 -1.57856,-11.24999 -2.31856,-18.40015 -3.47984,-33.62349 -0.41956,-5.5 -1.13466,-12.400001 -1.58912,-15.333338 l -0.82628,-5.333333 -2.4973,7.33333 c -1.37352,4.03334 -3.45358,9.361351 -4.62235,11.840031 -1.16876,2.47868 -2.30203,6.07868 -2.51836,8 -0.59832,5.31369 -4.26896,17.42719 -5.86273,19.34756 -0.77774,0.93711 -1.68988,3.8582 -2.027,6.49132 -0.33712,2.63311 -1.20239,5.88255 -1.92279,7.22095 -0.72041,1.33841 -1.62211,3.45037 -2.00377,4.69325 -0.88884,2.89452 -8.97031,4.47472 -12.69367,2.48203 -1.54389,-0.82626 -2.80707,-0.95108 -2.80707,-0.27738 0,1.5464 -10.82961,2.59059 -38.33333,3.69612 l -21.66667,0.87091 -0.0193,-3.1824 z"
       id="path22" />
  </g>
</svg>
