<?xml version="1.0" encoding="UTF-8" standalone="no"?>
<svg
   xmlns:dc="http://purl.org/dc/elements/1.1/"
   xmlns:cc="http://creativecommons.org/ns#"
   xmlns:rdf="http://www.w3.org/1999/02/22-rdf-syntax-ns#"
   xmlns:svg="http://www.w3.org/2000/svg"
   xmlns="http://www.w3.org/2000/svg"
   xmlns:sodipodi="http://sodipodi.sourceforge.net/DTD/sodipodi-0.dtd"
   xmlns:inkscape="http://www.inkscape.org/namespaces/inkscape"
   version="1.1"
   id="svg10"
   width="1436"
   height="529.33331"
   viewBox="0 0 1436 529.33331"
   sodipodi:docname="DoverLogonegro.svg"
   inkscape:version="1.0.2-2 (e86c870879, 2021-01-15)">
  <metadata
     id="metadata16">
    <rdf:RDF>
      <cc:Work
         rdf:about="">
        <dc:format>image/svg+xml</dc:format>
        <dc:type
           rdf:resource="http://purl.org/dc/dcmitype/StillImage" />
        <dc:title></dc:title>
      </cc:Work>
    </rdf:RDF>
  </metadata>
  <defs
     id="defs14" />
  <sodipodi:namedview
     pagecolor="#ffffff"
     bordercolor="#666666"
     borderopacity="1"
     objecttolerance="10"
     gridtolerance="10"
     guidetolerance="10"
     inkscape:pageopacity="0"
     inkscape:pageshadow="2"
     inkscape:window-width="1360"
     inkscape:window-height="705"
     id="namedview12"
     showgrid="false"
     inkscape:zoom="0.46100279"
     inkscape:cx="718"
     inkscape:cy="264.66666"
     inkscape:window-x="-8"
     inkscape:window-y="-8"
     inkscape:window-maximized="1"
     inkscape:current-layer="g18" />
  <g
     inkscape:groupmode="layer"
     inkscape:label="Image"
     id="g18">
    <path
       style="fill:#000000;stroke-width:1.33333"
       d="m 1131.1218,480.02515 c -1.2406,-13.25772 -7.1801,-70.88486 -8.1043,-78.63093 -0.9016,-7.55577 -3.2896,-6.72414 28.1734,-9.8112 24.4978,-2.40365 32.1036,-1.98602 38.8798,2.13484 11.5388,7.01715 13.1341,24.75243 3.0476,33.88059 l -2.8365,2.567 6.9719,3.42985 c 8.6879,4.27399 11.953,8.68379 12.7767,17.25563 0.9645,10.03828 -0.6056,15.71309 -5.9997,21.68366 -8.7687,9.70587 -15.25,11.66467 -50.188,15.16795 -10.9115,1.09411 -20.2839,1.98928 -20.8277,1.98928 -0.5438,0 -1.3957,-4.35 -1.8932,-9.66667 z m 47.004,-15.35236 c 5.468,-2.53041 7.1652,-6.53649 5.4307,-12.81838 -1.0636,-3.85208 -2.1852,-4.97371 -6.037,-6.03726 -4.3089,-1.18974 -13.8387,-0.89893 -21.5223,0.65676 -2.3048,0.46666 -2.8727,1.31283 -2.4034,3.58114 0.3379,1.63356 0.9944,6.46266 1.4589,10.73136 l 0.8446,7.76125 8.8922,-0.90913 c 4.8908,-0.50003 10.8921,-1.8346 13.3363,-2.96574 z m -7.063,-39.55626 c 2.3403,-1.53344 3.2856,-3.36056 3.2856,-6.35045 0,-6.68868 -3.1804,-9.07426 -12.0976,-9.07426 -12.4214,0 -13.153,0.9184 -11.0195,13.83358 l 0.8535,5.1669 7.8462,-0.71145 c 4.3153,-0.39131 9.3246,-1.68025 11.1318,-2.86432 z m 48.9573,53.61669 c 0.4092,-1.06631 3.8407,-14.18683 7.6255,-29.15673 5.9059,-23.35956 9.0059,-35.41981 16.1018,-62.64304 l 1.2404,-4.75836 14.1643,-1.64649 c 7.7904,-0.90556 14.364,-1.44688 14.608,-1.20294 0.9311,0.93111 44.6072,90.78981 44.2732,91.08728 -0.1933,0.17223 -5.9312,0.85617 -12.7508,1.51988 -8.4125,0.81872 -12.7446,0.75963 -13.4735,-0.1838 -0.5908,-0.7648 -2.6592,-4.90895 -4.5965,-9.20921 l -3.5224,-7.8187 -5.6708,0.7773 c -3.119,0.42752 -10.1709,1.17278 -15.6709,1.65614 -5.5,0.48338 -10.6895,1.42527 -11.5322,2.09308 -0.8427,0.66783 -2.3016,5.0851 -3.242,9.81618 -1.118,5.62461 -2.4337,8.80416 -3.8011,9.18617 -1.1502,0.32133 -7.1326,0.99772 -13.2941,1.50309 -9.5032,0.77946 -11.09,0.62474 -10.4589,-1.01985 z m 51.1337,-41.0414 h 4.4332 l -2.4769,-5.66666 c -1.3623,-3.11667 -4.4325,-9.86667 -6.8227,-15 l -4.3458,-9.33334 -2.8913,12 c -1.5902,6.6 -3.3317,13.73608 -3.87,15.85796 l -0.9787,3.85796 6.2595,-0.85796 c 3.4427,-0.47188 8.2545,-0.85796 10.6927,-0.85796 z M 89.836879,473.94279 c -0.681568,-1.1028 -11.181776,-61.67619 -12.450918,-71.82661 -0.685024,-5.47872 -0.61898,-5.58804 3.799334,-6.28857 6.052252,-0.95961 39.381805,-3.42805 59.313185,-4.39284 l 16.15004,-0.78175 0.94492,5.03687 0.94492,5.03688 11.57171,-0.88561 c 16.50985,-1.26354 28.05884,-3.98346 40.21033,-9.47 10.56179,-4.76879 10.71162,-4.79306 45.64564,-7.3925 55.60551,-4.1376 67.71574,-4.62506 67.71574,-2.7257 0,2.88013 -10.29823,19.08744 -19.17688,30.18046 -14.02048,17.51726 -31.1952,30.65027 -51.57074,39.43464 -24.29938,10.47604 -28.82204,11.36579 -90.58572,17.82109 -17.96666,1.8778 -40.70032,4.2966 -50.51924,5.3751 -20.811605,2.28592 -21.115019,2.29804 -21.992321,0.87854 z M 1330.3484,468.84074 c 0,-0.48901 -2.1485,-21.84899 -4.7746,-47.46661 -2.626,-25.61764 -4.576,-46.74997 -4.3333,-46.96077 0.9222,-0.80094 44.8145,-4.75231 52.6223,-4.73728 17.0887,0.0329 28.4856,10.54264 28.4856,26.26828 0,9.31834 -2.7684,15.68673 -9.5345,21.9332 l -5.4775,5.05672 17.67,18.37877 17.67,18.37877 -6.4973,0.80429 c -3.5736,0.44236 -10.6973,1.16772 -15.8307,1.61191 l -9.3333,0.80761 -14.1905,-15.69417 c -13.9146,-15.38894 -14.2875,-15.68286 -19.169,-15.11298 l -4.9784,0.5812 0.8924,10.16773 c 0.4908,5.59226 1.2403,13.23998 1.6655,16.99493 l 0.7732,6.82719 -9.1633,0.93073 c -5.0398,0.51191 -10.8132,1.19823 -12.8299,1.52516 -2.0167,0.32695 -3.6667,0.19433 -3.6667,-0.29468 z m 39.204,-57.7664 c 4.2354,-1.61029 7.888,-9.22358 6.6987,-13.96228 -1.6021,-6.38344 -5.2287,-8.11233 -16.2916,-7.7669 -5.5624,0.17369 -10.5181,0.77274 -11.0128,1.33122 -0.4945,0.5585 -0.2875,6.04108 0.4604,12.18352 l 1.3596,11.1681 7.5969,-0.79406 c 4.1784,-0.43672 9.2134,-1.40854 11.1888,-2.1596 z m -910.49976,30.46315 c -40.7447,-3.73718 -79.5934,-21.95104 -107.08156,-50.20425 -8.05729,-8.28154 -10.521,-12.26215 -8.40052,-13.57268 1.91279,-1.18218 -0.61936,-0.9767 90.11122,-7.31206 79.21724,-5.53142 111.3667,-7.87074 157.65745,-11.47175 42.18573,-3.28168 41.67588,-3.28056 41.67588,-0.0917 0,4.19619 -14.12652,22.71715 -27.11269,35.54684 -25.14359,24.8406 -53.24962,38.43561 -92.05979,44.52973 -20.89604,3.28117 -38.22048,4.09567 -54.78999,2.57588 z M 732.759,380.02516 c -16.59394,-28.66644 -16.63432,-28.7606 -12.69682,-29.60932 2.51056,-0.54115 25.26618,-2.20512 93.95293,-6.87015 11.40959,-0.7749 12.33333,-0.65305 12.33333,1.627 0,1.35556 -3.6411,13.66768 -8.09134,27.36028 -6.78734,20.88341 -8.56011,25.02416 -11,25.69325 -2.47998,0.68008 -54.90372,6.12855 -58.99387,6.13131 -0.7802,5.3e-4 -7.75711,-10.94904 -15.50423,-24.33237 z m 194.91608,3.33333 c -0.004,-0.55 -0.90218,-11.15149 -1.99669,-23.55886 -1.09449,-12.40738 -1.66771,-22.88115 -1.2738,-23.27506 0.39391,-0.39392 15.84243,-1.74153 34.33003,-2.99472 33.06982,-2.24164 67.24118,-4.71317 155.61378,-11.25516 24.5667,-1.8186 51.3261,-3.68065 59.4654,-4.13788 l 14.7987,-0.83133 0.7931,5.19317 c 0.4361,2.85624 1.2058,11.60115 1.7103,19.43314 l 0.9173,14.23994 -4.5091,0.72366 c -5.5738,0.89454 -19.3564,2.44402 -60.509,6.80259 -17.6,1.86406 -39.5,4.25154 -48.6667,5.3055 -9.1666,1.05396 -34.3666,3.76294 -56,6.01998 -21.6333,2.25703 -49.60101,5.28075 -62.15044,6.71936 -24.46296,2.80434 -32.51225,3.20422 -32.52288,1.61567 z M 96.33983,380.34456 c -0.543112,-0.87878 -1.275883,-5.28514 -1.62838,-9.79192 l -0.640904,-8.19415 36.472284,-11.72741 c 20.05976,-6.45008 37.18687,-11.70008 38.06025,-11.66667 0.87339,0.0335 1.88208,0.53662 2.24155,1.11823 1.02063,1.65141 6.2962,35.26124 5.63809,35.91934 -0.68644,0.68644 -38.05099,3.69736 -62.31151,5.02122 -12.49681,0.68192 -17.098752,0.50678 -17.83138,-0.67864 z m 162.00861,-10.70392 c 0,-0.87823 1.85915,-3.71423 4.13144,-6.30223 8.74354,-9.95832 13.91582,-28.8895 12.73447,-46.60962 -0.40199,-6.02967 -0.27331,-11.24583 0.28595,-11.59147 1.89012,-1.16816 135.02588,-43.44549 136.81441,-43.44549 1.35072,0 1.764,2.93973 1.73385,12.33333 -0.11026,34.33696 15.48579,60.61595 47.03439,79.25217 4.88359,2.8848 4.93777,3.88502 0.26549,4.9007 -3.91164,0.85032 -63.75248,4.35686 -93.66666,5.48865 -18.84199,0.71288 -86.64931,5.21441 -101,6.7051 -6.06511,0.63002 -8.33334,0.431 -8.33334,-0.73114 z M 65.845425,339.35849 c -1.908858,-10.08333 -4.952147,-27.03333 -6.762866,-37.66666 -1.810718,-10.63334 -7.216645,-41.82935 -12.013168,-69.32447 -4.796524,-27.49513 -8.720952,-51.31794 -8.720952,-52.93958 0,-3.54957 -1.42645,-3.26625 38.666667,-7.67987 16.5,-1.8164 41.400004,-4.61744 55.333334,-6.22453 34.54376,-3.98436 56.7021,-3.81205 76.1705,0.59233 38.15425,8.63172 65.55421,25.5951 94.07625,58.24279 l 7.57147,8.66666 1.61729,-4.51301 c 3.46076,-9.65713 14.5944,-30.6242 21.32184,-40.15365 42.46425,-60.15082 132.14644,-86.50145 207.25561,-60.89633 23.81698,8.11934 41.36298,18.58994 59.65371,35.59844 6.41667,5.96682 11.66667,10.24716 11.66667,9.51182 0,-0.73532 -3.08547,-6.63428 -6.8566,-13.10877 -22.72958,-39.02347 -24.2682,-41.99744 -22.35474,-43.20877 1.0329,-0.65389 2.49822,-1.19807 3.25626,-1.2093 0.75804,-0.0112 19.62236,-2.099 41.92073,-4.63949 28.96831,-3.30041 41.02956,-4.21483 42.24864,-3.20308 0.93839,0.77879 4.31705,6.30737 7.50813,12.28574 3.1911,5.97835 14.60899,27.14748 25.37311,47.0425 10.76412,19.89501 19.57113,36.80824 19.57113,37.58496 0,1.84644 -6.99524,2.64528 -31.33333,3.57823 -11,0.42165 -40.4,1.93782 -65.33333,3.36926 -93.86871,5.38905 -88.82272,5.24565 -94,2.67155 -2.56667,-1.27614 -7.96667,-4.16769 -12,-6.42568 -11.77791,-6.59367 -24.99214,-9.61775 -42.0264,-9.61775 -26.85988,0 -43.79128,6.89302 -61.97971,25.23284 -6.36065,6.41359 -13.03189,14.65367 -15.19407,18.76716 -5.55824,10.57447 -6.68912,11.53117 -17.95378,15.18865 -5.59866,1.81782 -34.47938,11.18091 -64.17938,20.80688 -29.7,9.62597 -56.26214,18.36488 -59.02698,19.41979 -8.50135,3.24364 -9.34652,2.78341 -12.73891,-6.93682 -4.31212,-12.35557 -10.12191,-22.1519 -18.51144,-31.21359 -9.45973,-10.21764 -19.73147,-16.87184 -33.66377,-21.80796 -10.64388,-3.77106 -12.66222,-4.03907 -30.72556,-4.07991 -10.63334,-0.024 -22.18334,0.44305 -25.66667,1.03799 -5.96652,1.01905 -6.33333,1.32193 -6.33333,5.22957 0,2.28133 3.3882,23.782 7.52934,47.77924 4.14115,23.99725 7.21584,44.44836 6.83266,45.4469 -0.67056,1.74748 -70.072177,25.14894 -74.544857,25.13571 -1.746504,-0.005 -2.876622,-3.67124 -5.653498,-18.33979 z M 552.6974,351.59635 c -0.45976,-0.45978 2.7684,-3.83551 7.17371,-7.50164 21.01133,-17.4858 31.87716,-42.69902 30.01029,-69.63628 -1.35333,-19.52732 -6.09062,-32.66691 -16.09466,-44.64096 -2.62486,-3.14175 -4.49004,-6.16924 -4.14486,-6.72776 0.73894,-1.19563 15.23738,-2.05508 80.0399,-4.74468 26.4,-1.09572 59.87517,-2.64352 74.38928,-3.43953 20.2284,-1.10943 26.83521,-1.07724 28.29936,0.13789 1.05053,0.87188 9.48636,15.92673 18.74626,33.45525 9.25991,17.52851 17.34438,32.18411 17.9655,32.56798 1.12769,0.69694 3.50468,-6.50816 15.40916,-46.70812 3.4746,-11.73334 6.66388,-21.74047 7.08728,-22.23808 0.42341,-0.49762 13.96982,-1.54185 30.10316,-2.32055 16.13333,-0.77868 34.58333,-1.7431 41,-2.14316 10.58425,-0.65988 11.66625,-0.50644 11.66214,1.65388 -0.003,1.30968 -8.15594,26.38124 -18.11881,55.71457 -9.96287,29.33333 -18.97643,56.15756 -20.03013,59.60939 -1.0537,3.45182 -2.50816,6.64214 -3.23214,7.08958 -0.72397,0.44744 -19.75838,1.97119 -42.29869,3.38612 -22.54031,1.41494 -49.03184,3.19516 -58.87007,3.95607 -9.83822,0.76089 -18.33957,0.91292 -18.89188,0.33781 -1.04209,-1.08512 -13.49184,-22.78797 -43.81448,-76.37897 -9.7509,-17.23333 -17.95624,-31.58333 -18.23409,-31.88889 -1.57896,-1.73637 -1.27739,1.98204 1.12643,13.88889 1.97288,9.77236 2.71537,18.85284 2.78013,34 0.0963,22.53145 -1.1296,31.22989 -7.1954,51.05416 -3.1302,10.23015 -4.63124,13.28949 -6.93865,14.14207 -1.6194,0.59836 -10.44436,1.48512 -19.61103,1.9706 -19.56676,1.03626 -69.42384,4.4694 -80.07421,5.51385 -4.07416,0.39955 -7.78374,0.35027 -8.2435,-0.10947 z m 712.9844,-5.34736 c -1.4667,-2.0296 -7.0167,-9.42 -12.3334,-16.42312 -5.3166,-7.00312 -9.6666,-13.21703 -9.6666,-13.80868 0,-0.59164 0.75,-1.33612 1.6666,-1.65439 1.9524,-0.67787 78.2174,-4.67097 89.2117,-4.67097 h 7.4926 l 12.8088,14.33333 c 7.0448,7.88333 12.8113,15.08333 12.8145,16 0,0.91667 -1.3442,1.67523 -2.9942,1.68569 -2.5151,0.016 -53.3648,4.33038 -87,7.38164 -9.089,0.82451 -9.4032,0.75006 -12,-2.8435 z M 945.80318,324.55492 c -0.38646,-0.62531 -1.62222,-12.47531 -2.74612,-26.33333 -1.12391,-13.85804 -3.30612,-40.08343 -4.84938,-58.27864 -1.54325,-18.19523 -2.58432,-33.30382 -2.31346,-33.57466 0.61572,-0.61572 40.05769,-2.74174 99.12088,-5.34283 24.9333,-1.09805 51.9916,-2.38373 60.1295,-2.85709 l 14.7962,-0.86066 0.8386,8.5254 c 0.4611,4.68896 1.2403,16.4318 1.7314,26.09519 l 0.8929,17.5698 -4.5277,0.72773 c -2.4901,0.40025 -14.1276,1.68196 -25.8609,2.84821 -50.5945,5.02896 -58.5705,5.98826 -59.7711,7.18891 -1.3757,1.37571 1.4939,46.82296 3.1229,49.45873 0.6708,1.08541 14.0904,0.17816 48.7868,-3.29832 26.3238,-2.63756 49.2114,-5.0926 50.8614,-5.45563 3.7278,-0.82016 3.7191,0.42218 0.3333,-47.94257 -3.1179,-44.53834 -3.3087,-55.21286 -1,-55.94697 0.9167,-0.29148 21.7667,-1.4655 46.3334,-2.60896 24.5666,-1.14345 72.1405,-3.36228 105.7197,-4.93073 33.5791,-1.56845 61.4104,-2.49431 61.8472,-2.05747 2.2453,2.24526 -16.5877,22.83288 -26.1054,28.53764 -3.3705,2.02024 -10.0282,5.25544 -14.7949,7.18933 -4.7666,1.93391 -8.6666,4.12068 -8.6666,4.85952 0,0.73883 10.5,12.89434 23.3333,27.01222 12.8333,14.11788 26.8931,29.63109 31.244,34.47381 l 7.9107,8.80494 -5.244,1.00972 c -2.8842,0.55535 -24.1245,2.18031 -47.2005,3.61103 -39.5813,2.45405 -42.0999,2.47237 -44.4886,0.32361 -1.3926,-1.25273 -8.2717,-9.77769 -15.2869,-18.94435 -22.2058,-29.01612 -29.9977,-38.66667 -31.2195,-38.66667 -0.6692,0 -0.8151,5.09311 -0.3343,11.66667 0.7229,9.88498 1.4462,12.53801 4.7362,17.37232 4.7547,6.98673 4.8778,9.98488 0.5496,13.38946 -2.949,2.31963 -3.3334,3.62833 -3.3334,11.34841 v 8.7264 l -5.6666,0.72519 c -3.1167,0.39885 -16.7667,1.36288 -30.3334,2.14227 -13.5666,0.7794 -40.8666,2.57726 -60.6666,3.99526 -19.8,1.418 -45.9,3.19887 -58,3.95748 -12.1,0.75863 -40.6,2.56642 -63.33336,4.01732 -48.01785,3.06463 -45.64012,2.98686 -46.54526,1.52231 z M 791.68178,201.00855 c 0,-0.81418 24.0588,-84.50345 28.86253,-100.39917 1.84203,-6.095357 4.05152,-11.323467 4.90997,-11.618037 0.85846,-0.29456 24.06083,-2.95655 51.56083,-5.91553 27.5,-2.95897 66.2,-7.18447 86,-9.39 60.55489,-6.74522 131.31329,-14.54141 144.66669,-15.93943 6.9666,-0.72937 30.9666,-3.39597 53.3333,-5.92578 64.0893,-7.2489 74.9921,-8.02405 88.1786,-6.26925 42.6689,5.67818 65.4915,23.94573 76.0446,60.867237 5.7559,20.13816 3.6506,59.9585 -3.4831,65.87894 -1.2819,1.06388 -13.7774,2.24402 -36.3468,3.43281 -18.9163,0.99637 -39.7933,2.20343 -46.3933,2.68236 l -12,0.87077 6.2575,-6.46249 c 7.7529,-8.00692 9.0778,-11.44751 9.0684,-23.54928 -0.011,-13.10639 -1.9311,-18.97485 -8.4447,-25.79866 -8.0517,-8.43516 -16.7238,-11.11949 -35.8479,-11.09633 -8.2683,0.01 -16.4681,0.40217 -18.2218,0.87146 l -3.1885,0.85326 0.9273,15.46187 c 0.51,8.50403 1.4204,23.26187 2.023,32.7952 0.6697,10.59267 0.6106,17.64239 -0.1519,18.12804 -1.1159,0.71071 -21.5179,2.16952 -65.9573,4.71619 l -14.8692,0.85209 -0.7863,-9.84816 c -0.4325,-5.41649 -1.3913,-17.15141 -2.1308,-26.07761 -0.7394,-8.9262 -1.3445,-17.25373 -1.3445,-18.50562 0,-2.66589 2.6686,-2.84862 -61.3098,4.19812 -23.0871,2.54286 -42.41301,5.0598 -42.94641,5.5932 -0.5334,0.5334 -0.0197,11.63972 1.14151,24.68072 1.16122,13.04099 1.72834,24.09387 1.26026,24.56195 -0.84892,0.84892 -41.8866,3.66837 -66.412,4.56276 -7.56013,0.27571 -13.43722,-0.0823 -14.14648,-0.86168 -0.66733,-0.73333 -2.51656,-15.73333 -4.10938,-33.33333 -3.73906,-41.31483 -4.21798,-45.14062 -5.48191,-43.7911 -0.57923,0.61844 -6.85919,18.90713 -13.95549,40.64154 l -12.90238,39.5171 -10.90226,0.84336 c -33.69522,2.60658 -72.90228,4.09763 -72.90228,2.77248 z"
       id="path22" />
  </g>
</svg>
